<!-- Left Arrow Control -->
<svg xmlns="http://www.w3.org/2000/svg" viewBox="0 0 50 65.8" enable-background="new 0 0 50 65.8">
   <g>
      <path d="M42.7,5.5L12,36.2c-0.7,0.7-1.9,0.7-2.6,0l-2-2c-0.7-0.7-0.7-1.9,0-2.6L38,0.8c0.7-0.7,1.9-0.7,2.6,0l2,2
         C43.4,3.6,43.4,4.8,42.7,5.5z" style="fill: #6accba;"/>
      <path d="M42.7,60.3L12,29.6c-0.7-0.7-1.9-0.7-2.6,0l-2,2c-0.7,0.7-0.7,1.9,0,2.6L38,65c0.7,0.7,1.9,0.7,2.6,0l2-2
         C43.4,62.2,43.4,61,42.7,60.3z" style="fill: #6accba;"/>
   </g>
</svg>